<svg id="Layer_1" data-name="Layer 1" xmlns="http://www.w3.org/2000/svg" xmlns:xlink="http://www.w3.org/1999/xlink" viewBox="0 0 250 250"><defs><style>.cls-1{fill:none;}.cls-2{clip-path:url(#clip-path);}.cls-3{clip-path:url(#clip-path-2);}.cls-4{fill:#fff;}</style><clipPath id="clip-path" transform="translate(-75 -75)"><path class="cls-1" d="M229.9,131.2l3.32,14.74,3.48-14.13a6.84,6.84,0,0,1,1-2.45,1.89,1.89,0,0,1,1.54-.66,25.13,25.13,0,0,1,2.69.2c1.2.13,2.1.2,2.72.2s2.23-.11,4.76-.32c.72-.06,1.25-.08,1.6-.08a3,3,0,0,1,2.3,4.84,1.9,1.9,0,0,1-1.54.77,5.31,5.31,0,0,1-1-.14,4.42,4.42,0,0,0-.92-.14q-1.08,0-1.08,2.7v11.19c0,1.83.35,2.75,1,2.75a4.71,4.71,0,0,0,1-.15,5.31,5.31,0,0,1,1-.14,2,2,0,0,1,1.56.77,2.84,2.84,0,0,1,.64,1.9A2.74,2.74,0,0,1,251,156a20.71,20.71,0,0,1-2.56-.25,19.35,19.35,0,0,0-2.4-.16,18.75,18.75,0,0,0-2.24.2,17.53,17.53,0,0,1-2.24.21,2.52,2.52,0,0,1-2-.81,3.06,3.06,0,0,1-.74-2.14c0-1.67.55-2.51,1.64-2.51a1.13,1.13,0,0,1,.37.05h.28l.2,0c.42,0,.68-.3.76-.89,0-.27,0-.73,0-1.38V133.14L236.58,153c-.48,1.72-1.26,2.58-2.36,2.58h-2.56c-1.07,0-1.8-.76-2.2-2.3l-5.33-20.15v15.22c0,1.27.12,2,.36,2.14a.61.61,0,0,0,.45.13l.24,0h.24a1.06,1.06,0,0,1,.36-.05c1.06,0,1.6.83,1.6,2.47a3.17,3.17,0,0,1-.72,2.18,2.44,2.44,0,0,1-1.92.81,11.18,11.18,0,0,1-1.45-.12l-1.4-.21c-.56,0-1.2-.08-1.92-.08a18.12,18.12,0,0,0-2.28.12l-2.48.33a2.69,2.69,0,0,1-2-.85,3,3,0,0,1-.8-2.14,2.88,2.88,0,0,1,.62-1.92,2,2,0,0,1,1.58-.75,4.93,4.93,0,0,1,.94.14,4.38,4.38,0,0,0,.94.15c.53,0,.87-.35,1-1a11.61,11.61,0,0,0,.08-1.7V136.73a10.5,10.5,0,0,0-.08-1.65c-.13-.7-.47-1.05-1-1.05a4.23,4.23,0,0,0-.94.14,4.94,4.94,0,0,1-1,.14,1.91,1.91,0,0,1-1.54-.77,2.88,2.88,0,0,1-.62-1.9c0-2,1-2.94,3-2.94.64,0,1.71.06,3.2.2s2.62.2,3.36.2a31.16,31.16,0,0,0,3.77-.24,17.53,17.53,0,0,1,2.08-.16,1.75,1.75,0,0,1,1.4.48A5.61,5.61,0,0,1,229.9,131.2Zm-23.66,5.13v1.78l0,3.55v1.25c0,3,0,4.82-.12,5.41a7.93,7.93,0,0,1-2,4.81q-3.16,3.39-9.56,3.39-6.62,0-9.37-3.51-1.68-2.14-1.68-6.34c0-.24,0-1.74.12-4.49,0-1.83.08-3.29.08-4.4v-1.57c0-1.46-.39-2.18-1.16-2.18a3.9,3.9,0,0,0-.88.14,4.69,4.69,0,0,1-1,.14,1.91,1.91,0,0,1-1.54-.75,2.8,2.8,0,0,1-.62-1.88,2.83,2.83,0,0,1,.86-2.18,3.14,3.14,0,0,1,2.26-.8,23.73,23.73,0,0,1,2.64.2c1.17.13,2.06.2,2.64.2a19.36,19.36,0,0,0,2.26-.2,17.5,17.5,0,0,1,2.26-.2,2.44,2.44,0,0,1,1.93.8,3.17,3.17,0,0,1,.72,2.18c0,1.62-.55,2.43-1.64,2.43h-.4a2.6,2.6,0,0,0-.53,0c-.45,0-.72.28-.8.85v10.66a6.34,6.34,0,0,0,.94,3.93,3.9,3.9,0,0,0,3.19,1.16,4.06,4.06,0,0,0,3.26-1.2,5.94,5.94,0,0,0,1-3.89v-9.25a6.35,6.35,0,0,0-.16-1.88.69.69,0,0,0-.72-.38,2.21,2.21,0,0,0-.48,0h-.4c-1.1,0-1.64-.82-1.64-2.47a3,3,0,0,1,.74-2.14,2.49,2.49,0,0,1,1.94-.8,18.28,18.28,0,0,1,2.3.2,20.43,20.43,0,0,0,2.3.2c.59,0,1.47-.07,2.64-.2a24,24,0,0,1,2.65-.2,2.79,2.79,0,0,1,3,3,2.84,2.84,0,0,1-.62,1.9,2,2,0,0,1-1.62.73,4.22,4.22,0,0,1-.9-.14,3.75,3.75,0,0,0-.87-.14C206.63,134,206.24,134.79,206.24,136.33Zm-48-1.41v5.77l5.81-5.41c.93-.86,1.4-1.5,1.4-1.9a.63.63,0,0,0-.16-.48,2.62,2.62,0,0,0-.52-.37,1.75,1.75,0,0,1-.76-1.49,2.18,2.18,0,0,1,.72-1.7,2.71,2.71,0,0,1,1.88-.64,16.47,16.47,0,0,1,2.22.2,18.49,18.49,0,0,0,2.22.2,15.36,15.36,0,0,0,2.32-.24,10.76,10.76,0,0,1,1.72-.16,2.91,2.91,0,0,1,2.11.74,2.7,2.7,0,0,1,.78,2,3.26,3.26,0,0,1-.62,2,1.81,1.81,0,0,1-1.46.83,3.37,3.37,0,0,1-.79-.14,2.79,2.79,0,0,0-.78-.14,2.66,2.66,0,0,0-1.36.68l-.72.57-3.88,3.43q-1.2,1-1.2,1.5a3,3,0,0,0,.44,1l1,1.85,2.84,4.89c1,1.8,1.87,2.71,2.48,2.71a3.78,3.78,0,0,0,.82-.15,4.39,4.39,0,0,1,.91-.14q2.16,0,2.16,2.67a2.92,2.92,0,0,1-.8,2.14A2.86,2.86,0,0,1,175,156a13.21,13.21,0,0,1-1.8-.16,13.63,13.63,0,0,0-4.94-.05,16,16,0,0,1-2.14.21,2.55,2.55,0,0,1-1.76-.65,2.08,2.08,0,0,1-.72-1.61,2.53,2.53,0,0,1,1.12-1.86,1.13,1.13,0,0,0,.52-.89,4.05,4.05,0,0,0-.64-1.58l-2.12-3.71c-.48-.86-.82-1.29-1-1.29a.58.58,0,0,0-.44.2l-.4.4-2.37,2v2.79c.08.56.35.85.8.85l.21,0h.24a1.06,1.06,0,0,1,.36-.05c1.17,0,1.76.84,1.76,2.51a3.1,3.1,0,0,1-.72,2.14,2.51,2.51,0,0,1-2,.81,13.46,13.46,0,0,1-1.64-.16l-1.68-.21c-.4,0-.86,0-1.4,0a26.19,26.19,0,0,0-2.66.2A23.84,23.84,0,0,1,149,156a2.78,2.78,0,0,1-2.08-.81,3.27,3.27,0,0,1-.18-4.06,2,2,0,0,1,1.58-.75,4.93,4.93,0,0,1,.94.14,4.38,4.38,0,0,0,.94.15c.72,0,1.08-.92,1.08-2.75V136.73a10.5,10.5,0,0,0-.08-1.65c-.13-.7-.47-1.05-1-1.05a4.23,4.23,0,0,0-.94.14,4.94,4.94,0,0,1-1,.14,1.9,1.9,0,0,1-1.54-.77,2.88,2.88,0,0,1-.62-1.9,3,3,0,0,1,.78-2.16,2.84,2.84,0,0,1,2.1-.78,25.27,25.27,0,0,1,2.7.2c1.21.13,2.14.2,2.78.2a19.8,19.8,0,0,0,2.28-.2,18,18,0,0,1,2.28-.2,2.44,2.44,0,0,1,1.93.8,3.17,3.17,0,0,1,.72,2.18c0,1.62-.59,2.43-1.76,2.43h-.36a2,2,0,0,0-.49,0C158.63,134.07,158.37,134.35,158.29,134.92Zm74.9,45.76c0,.28.2.45.65.45s.65-.17.65-.45-.21-.45-.65-.45S233.19,180.4,233.19,180.68Zm.65,2.49c.52,0,.76-.18.76-.5s-.24-.51-.76-.51-.76.19-.76.51S233.32,183.17,233.84,183.17Zm0,1.1c-1.19,0-2.05-.47-2.05-1.54a1.2,1.2,0,0,1,.69-1.14,1.11,1.11,0,0,1-.57-1c0-.86.59-1.48,1.93-1.48s1.93.62,1.93,1.48a1.1,1.1,0,0,1-.58,1,1.19,1.19,0,0,1,.69,1.14C235.88,183.8,235,184.27,233.84,184.27ZM226.05,181l-.49.42-.79-.84,1.51-1.33h1.05V183h.54v1.11h-2.36V183h.54Zm-7.31,2.15c.68,0,1-.5,1-1.47s-.32-1.47-1-1.47-1,.5-1,1.47S218.06,183.17,218.74,183.17Zm0,1.1c-1.47,0-2.28-1-2.28-2.57s.81-2.57,2.28-2.57,2.28,1,2.28,2.57S220.21,184.27,218.74,184.27Zm-10.09-.13v-.89l2.07-1.8a1,1,0,0,0,.42-.71c0-.28-.14-.51-.58-.51a.88.88,0,0,0-.78.64l-1.15-.4a1.92,1.92,0,0,1,1.93-1.34c1.06,0,1.87.55,1.87,1.61a1.86,1.86,0,0,1-.8,1.44l-1,.85h.67v-.33h1.15v1.44Zm-12.5-.6a.67.67,0,1,1,.67.67A.67.67,0,0,1,196.15,183.54ZM192,180.37h-.82V183H192c.82,0,1.15-.59,1.15-1.33S192.81,180.37,192,180.37Zm2.46,1.33a2.26,2.26,0,0,1-2.46,2.44h-2.65V183h.54v-2.66h-.54v-1.1H192A2.24,2.24,0,0,1,194.45,181.7Zm-12.26-1.33h-.52v.47h-1.28v-1.57h4.9v1.57H184v-.47h-.52V183H184v1.11h-2.37V183h.54Zm-8.65,2.16v.55a2.44,2.44,0,0,0,.68.09c.5,0,.86-.08.86-.46s-.36-.37-.94-.49c-1.29-.27-1.88-.73-1.88-1.55s.57-1.54,2-1.54a6.14,6.14,0,0,1,2,.34v1.37h-1.29v-.54a3.08,3.08,0,0,0-.65-.07c-.47,0-.74.12-.74.41s.31.39.85.51c1.24.27,2,.63,2,1.56s-.74,1.56-2.09,1.56a3.26,3.26,0,0,1-2-.5v-1.24Zm-10.06,1.61V183H164v-2.66h-.54v-1.1h4.6v1.57h-1.29v-.47H165.3v.79h1.49v1H165.3V183h1.55v-.47h1.28v1.58ZM133,173.91v15.66H267V173.91Zm-5.21,9.57h-9l3.91,7.82-3.91,7.83h17.5l-6.46-4.73c-1.52-.68-2-2.2-2-4Zm144.34-5.22h10a4.34,4.34,0,0,1,3.89,6.29l-3.38,6.75,3.38,6.76a4.35,4.35,0,0,1-3.89,6.29H258.06a4.35,4.35,0,0,1-4.35-4.35v-5.22H145.88V200a4.35,4.35,0,0,1-4.35,4.35H117.39a4.34,4.34,0,0,1-3.89-6.29l3.38-6.76-3.38-6.75a4.35,4.35,0,0,1,3.89-6.29h10.44V173a4.34,4.34,0,0,1,4.34-4.34H267.83a4.34,4.34,0,0,1,4.34,4.34Zm-8.47,20.87h17.09l-3.91-7.83,3.91-7.82h-8.62v7a4.1,4.1,0,0,1-2.26,4Zm-42,79.95v-3.31a.12.12,0,0,1,.12-.12h1.51a.12.12,0,0,1,.12.12v8.46a.12.12,0,0,1-.12.12h-1.51a.12.12,0,0,1-.12-.12v-3.51h-2.14v3.51a.12.12,0,0,1-.12.12H218c-.06,0-.1-.05-.1-.12v-8.46c0-.07,0-.12.1-.12h1.51a.12.12,0,0,1,.12.12v3.31Zm-8.88,5.27a.11.11,0,0,1-.11-.12v-8.46a.11.11,0,0,1,.11-.12h1.51a.12.12,0,0,1,.12.12v8.46a.12.12,0,0,1-.12.12Zm-5.1-3v-2.7a1.23,1.23,0,0,0-1.36-1.36H205.2v5.4h1.19A1.28,1.28,0,0,0,207.75,281.36Zm-.89-5.71a2.63,2.63,0,0,1,2,.74,2.74,2.74,0,0,1,.59,1.87v3.49a2.38,2.38,0,0,1-2.62,2.6h-3.3a.11.11,0,0,1-.11-.12v-8.46a.11.11,0,0,1,.11-.12Zm-10,5.14H198l-.57-2Zm-.37-5.06a.1.1,0,0,1,.09-.08h1.64a.1.1,0,0,1,.09.08l2.29,8.47a.12.12,0,0,1-.12.15H199a.12.12,0,0,1-.09-.08l-.51-1.85h-1.94l-.5,1.85a.09.09,0,0,1-.09.08h-1.52a.12.12,0,0,1-.12-.15Zm-7.55-.08a.12.12,0,0,1,.12.12v6.92H192a.12.12,0,0,1,.12.12v1.42a.12.12,0,0,1-.12.12h-4.49c-.06,0-.1-.05-.1-.12v-8.46c0-.07,0-.12.1-.12Zm-5.17,0a.12.12,0,0,1,.12.12v8.46a.12.12,0,0,1-.12.12h-1.44a.12.12,0,0,1-.1-.12v-4.88l-1.46,4.92a.11.11,0,0,1-.1.08h-1.05a.13.13,0,0,1-.11-.08l-1.36-5v5a.12.12,0,0,1-.12.12h-1.47c-.05,0-.09-.05-.09-.12v-8.46c0-.07,0-.12.09-.12h1.86a.15.15,0,0,1,.12.08l1.6,5.34,1.76-5.34a.09.09,0,0,1,.09-.08Zm87.26-24.23h3.15v-7.34c0-1.79-.5-2.59-1.6-2.59s-1.55.84-1.55,2.59Zm0,6.18v5.88h-7.51V241.33c0-2.42.42-3.88,1.3-4.63s2.6-1,6.25-1h3.07c3.65,0,5.37.29,6.25,1s1.3,2.21,1.3,4.63v22.15h-7.51V257.6Zm-18.39-10v9.72c0,3.42-.21,4.34-1.17,5.18s-1.93,1-6.25,1h-3.11c-3.1,0-3.94,0-4.86-.29-1.81-.42-2.48-1.46-2.65-3.93,0-.33,0-.83-.08-5.46v-8.34c0-4.8.38-7.26,1.34-8.39s2.27-1.42,6.25-1.42h10.53v6.84a18.39,18.39,0,0,0-5.45-.79H244.6c-2.31,0-2.52.21-2.52,2.55v9.88c0,3,.17,3.3,1.89,3.3h1.21v-6.72a8.73,8.73,0,0,0-.58-3.13Zm-36.47-11.93h7.51V257.8c0,2.42-.42,3.88-1.3,4.64s-2.64,1-6.25,1h-3.06c-3.65,0-5.37-.29-6.25-1s-1.3-2.22-1.3-4.64V235.65h7.51v19.44c0,1.76.5,2.55,1.55,2.55s1.59-.79,1.59-2.55ZM184,246.54h1c1.77,0,2.14-.42,2.14-2.38s-.54-2.46-2.14-2.46h-1Zm-7.51-10.89h11.45c3.78,0,4.15.09,5,.63,1.1.71,1.68,2.38,1.68,4.75v1.8c0,2.71-.12,3.46-.67,4.5-.71,1.17-1.55,1.67-3.44,1.88,3.32,1,4.11,2,4.11,5.3v4.3a17.7,17.7,0,0,0,.59,4.67h-7.51a13.54,13.54,0,0,1-.59-4.67v-3.72c0-1.79-.63-2.5-2.18-2.5h-1v10.89h-7.51Zm-21.58,21.7h1.34c1.55,0,1.85-.42,1.85-2.42V244.16c0-2-.3-2.46-1.85-2.46h-1.34Zm-7.51-21.7h10.57a17.73,17.73,0,0,1,3.78.17,3.68,3.68,0,0,1,3.23,2.34,25.41,25.41,0,0,1,.63,6.84v7.51a48.44,48.44,0,0,1-.46,7.34c-.38,2.21-1.64,3.42-3.7,3.54-.16,0-.75.05-3.48.09H147.35Zm-18.43,0h7.51V257.8c0,2.42-.42,3.88-1.3,4.64s-2.65,1-6.25,1h-3.07c-3.65,0-5.37-.29-6.25-1s-1.3-2.22-1.3-4.64V235.65h7.51v19.44c0,1.76.5,2.55,1.55,2.55s1.6-.79,1.6-2.55Zm112.64-16.6h1.32l-.68-2.39Zm-.45-6.08a.12.12,0,0,1,.11-.1h2c.07,0,.1,0,.12.1l2.76,10.18a.14.14,0,0,1-.14.17h-1.82a.13.13,0,0,1-.12-.09l-.62-2.22H241l-.6,2.22a.11.11,0,0,1-.12.09h-1.84a.14.14,0,0,1-.14-.17Zm-5.38-.1a.14.14,0,0,1,.12.22l-2.52,3.44,2.66,6.62a.13.13,0,0,1-.13.17H233.7a.11.11,0,0,1-.11-.09l-1.66-4.74-.82,1.11v3.58a.14.14,0,0,1-.14.14h-1.83a.13.13,0,0,1-.13-.14V213a.14.14,0,0,1,.13-.15H231a.15.15,0,0,1,.14.15v3.27l2.51-3.35c0-.07.07-.07.13-.07ZM224,209.57a.14.14,0,0,1,.1.23l-1.22,1.54c-.05,0-.06,0-.13,0h-1.69a.12.12,0,0,1-.1,0l-1.25-1.54a.15.15,0,0,1,.1-.23h1.25c.06,0,.09,0,.14.07l.69,1,.7-1s.08-.07.13-.07Zm-.62,10.09v-.49a.14.14,0,0,1,.14-.14h1.83a.14.14,0,0,1,.14.14v1c0,2.33-1.26,3.31-3.65,3.31-2.22,0-3.68-.87-3.68-3.31V216c0-2.35,1.3-3.28,3.68-3.28s3.65.86,3.65,3.28v.33a.14.14,0,0,1-.14.14h-1.84a.15.15,0,0,1-.15-.14v-.25c0-.87-.65-1.24-1.44-1.24h-.19a1.27,1.27,0,0,0-1.12.46,2,2,0,0,0-.3,1.22v3.13c0,1.38.78,1.68,1.42,1.68h.19a1.31,1.31,0,0,0,1.14-.46A2,2,0,0,0,223.4,219.66Zm-12.26-.61h1.33l-.69-2.39Zm-.45-6.08c0-.05.05-.1.12-.1h2a.12.12,0,0,1,.11.1l2.77,10.18a.14.14,0,0,1-.14.17H213.7a.11.11,0,0,1-.11-.09L213,221h-2.34l-.61,2.22a.1.1,0,0,1-.11.09h-1.84a.14.14,0,0,1-.14-.17Zm-8.35,6.55,1.81-6.55c0-.05.06-.1.13-.1h1.82a.13.13,0,0,1,.13.18l-2.77,10.18a.13.13,0,0,1-.13.09h-2a.11.11,0,0,1-.11-.09l-2.77-10.18a.14.14,0,0,1,.14-.18h1.84c.07,0,.1,0,.13.1Zm-12.2,3.8a.13.13,0,0,1-.13-.14V213a.14.14,0,0,1,.13-.15h5.43a.15.15,0,0,1,.15.15v1.69a.15.15,0,0,1-.15.14h-3.45V217h2.69c.08,0,.12.07.12.15v1.72c0,.08,0,.14-.12.14h-2.69v2.33h3.45a.15.15,0,0,1,.15.14v1.7a.15.15,0,0,1-.15.14Zm-4.93-13.75a.14.14,0,0,1,.09.23l-1.21,1.54a.21.21,0,0,1-.13,0h-1.7s-.06,0-.09,0l-1.25-1.54a.14.14,0,0,1,.1-.23h1.24a.21.21,0,0,1,.15.07l.69,1,.7-1s.08-.07.13-.07Zm-2.87,11.77h3.76a.15.15,0,0,1,.15.14v1.7a.15.15,0,0,1-.15.14h-6.17a.13.13,0,0,1-.15-.14v-1.76a.15.15,0,0,1,0-.06l3.86-6.51h-3.78a.14.14,0,0,1-.14-.14V213a.15.15,0,0,1,.14-.15h6.22a.13.13,0,0,1,.12.13v1.77a.1.1,0,0,1,0,.07Zm-8.28,2a.13.13,0,0,1-.13-.14V213a.14.14,0,0,1,.13-.15h1.82a.15.15,0,0,1,.14.15v10.16a.14.14,0,0,1-.14.14Zm-5.86-6.09v-1c0-1.11-.42-1.22-1.63-1.22h-.47v3.5h.47C167.58,218.48,168.17,218.46,168.2,217.23Zm1.81,2a2.07,2.07,0,0,1-1,1l1.34,2.93a.13.13,0,0,1-.11.19h-2a.1.1,0,0,1-.11-.08l-1.25-2.69h-.82v2.63a.14.14,0,0,1-.14.14h-1.84a.13.13,0,0,1-.11-.14V213c0-.08.05-.15.11-.15h3.33a2.6,2.6,0,0,1,2.85,2.85v2A3.5,3.5,0,0,1,170,219.19Zm-9.38-6.32a.14.14,0,0,1,.11.22l-2.51,3.44,2.66,6.62a.13.13,0,0,1-.13.17H158.6a.11.11,0,0,1-.11-.09l-1.67-4.74L156,219.6v3.58a.15.15,0,0,1-.15.14H154a.13.13,0,0,1-.13-.14V213a.14.14,0,0,1,.13-.15h1.82a.15.15,0,0,1,.15.15v3.27l2.51-3.35c0-.07.06-.07.13-.07Zm-24.85,2.78a2.61,2.61,0,0,1,0,5.22H97.24a2.6,2.6,0,0,1-2.56-2.16,107,107,0,1,1,210.64,0,2.6,2.6,0,0,1-2.56,2.16H264.22a2.61,2.61,0,0,1,0-5.22h36.32a101.74,101.74,0,1,0-201.08,0Zm-1.73,69a2.61,2.61,0,0,1,3.2-4.12,101.56,101.56,0,0,0,124.63,0,2.61,2.61,0,1,1,3.2,4.12,106.87,106.87,0,0,1-131,0ZM200,320A120,120,0,1,1,320,200,120,120,0,0,1,200,320Zm0-5.22A114.78,114.78,0,1,0,85.22,200,114.78,114.78,0,0,0,200,314.78Z"/></clipPath><clipPath id="clip-path-2" transform="translate(-75 -75)"><rect class="cls-1" width="400" height="400"/></clipPath></defs><title>White Transparent@1x</title><g class="cls-2"><g class="cls-3"><rect class="cls-4" width="250" height="250"/></g></g></svg>