<svg id="Layer_2" data-name="Layer 2" xmlns="http://www.w3.org/2000/svg" viewBox="0 0 1920 1080"><defs><style>.cls-1{stroke:#000;stroke-miterlimit:10;}</style></defs><title>party_mask</title><g id="party"><path d="M1920.234-.064H-.191V1080.064H1920.234Zm-276.851,952.3c-30.638,54.383-187.305,68.126-253.479,79.471l-934.776-.833c-131.745-19.4-167.741-17.624-233.362-49.532-25.036-12.173-53.617-59.744-76.6-91.914C70.255,784.544,18.021,584.574,102.277,468.149,137.249,419.824,160.7,228,223.3,186.277,303.569,132.775,417.851,97.426,512,145c92.67,46.827,292-18,507,0,358.214,29.99,350.17,29.021,488.043,35.149C1701.392,188.787,1617.779,555.955,1619,617,1620.4,687.213,1730.183,798.163,1643.383,952.234Z"/><path class="cls-1" d="M1656.489,777.766l-.681-6.468-2.553-5.617-2.042-4.766-1.021-5.277-7.32-11.064-11.915-20.766s-3.063-4.255-3.234-4.765-2.383-4.937-2.383-4.937l-.851-4.425-.17-6.979V697.6l.17-4.085-2.723-3.4-1.872-2.723-1.362-3.064-1.362-1.021-2.213-.341-1.531,1.192-.852.17-1.872-1.191.17-1.532-1.361-.851h-2.043l-1.191,2.042-2.043.17v-1.191l-1.7-1.7-2.553-.681-1.873,1.362-.68-6.3-1.532-5.787-.511-2.383-1.532-.851-1.532.51-1.7,2.213.681,12.085.681,5.447.17,6.468L1593,694.7l-1.7,2.724-2.383-1.532-4.085-3.575-1.873-2.893-3.234-.341-2.383.17-1.021,1.873,2.383,4.766,5.106,6.468,2.894,3.4,7.149,5.957,7.489,3.915,6.128,9.362,6.638,13.447,2.043,9.361,4.425,23.149,3.575,5.192,3.149,7.149.936,1.362-2.468,1.276-3.319,4.341-3.915,8-5.617,8.085-2.213,5.276-4.255,2.043-8.341,2.213-1.361,2.042.17,1.362-.17,2.042h-1.532l.17-.851-3.4-.34-1.873.851-1.532.511-2.553-1.532-2.042-2.553-2.553-1.362-2.043-.341-1.7-1.361-1.362-2.213.851-2.553,2.213-2.724,3.4-3.915,2.553-4.936,2.383-4.766.511-5.106-.511-10.043-1.361-6.127L1582.617,765l-3.915-5.957-5.106-4.426-6.809-3.915-8.51-2.042-8.171-.341-8.68,2.043-4.6,1.191-7.49,4.255-4.255,3.235s-2.893,3.063-3.234,3.574-2.043,2.553-2.043,2.553-1.191,2.724-1.531,3.234a24.283,24.283,0,0,0-1.022,3.575l-.851,4.766v4.425c0,.681.341,2.213.341,3.575a18.834,18.834,0,0,0,.34,3.063s.341,2.043.681,3.235.851,2.723,1.191,3.574a13.359,13.359,0,0,1,.511,2.213c.17.681,1.021,2.893,1.021,2.893l4.426,4.6,2.383,2.383,1.7,3.234.17,2.383,1.362,3.4,2.042,1.362-.17,3.745-.851,2.893-.51,1.362L1529,824.4l-.34-1.7a12.827,12.827,0,0,1-2.894-.511,25.444,25.444,0,0,0-3.574-.851l-2.724-1.872-4.766-2.213s-1.7-1.7-1.7-2.383a18.965,18.965,0,0,0-1.192-3.4,24.576,24.576,0,0,1-.68-3.915c0-1.191-.511-3.574-.511-4.6s-1.362-4.085-1.532-4.766-1.191-3.063-1.191-3.063l.17-3.405,1.7-1.7.851-3.064.681-3.4-.17-4.425v-2.554l-1.192-2.212-.681-2.213-3.744-1.192-4.426-1.7-2.042-1.872-4-1.532-1.788-3.447-2.042-3.064-2.936.128-1.66,4.17-1.191,3.745a25.522,25.522,0,0,0,1.021,3.745c.34.51,1.532,7.319,1.191,8.68s.511,4.766.511,4.766l1.7,2.554,2.213,3.744.51,3.745,3.234,2.723s1.532,4.256,1.7,4.766,1.191,4.937,1.191,4.937l1.7,5.957-3.234-3.4-1.532-1.022-2.042-1.361-8-8.17-4.085-3.064,1.787-3.319-.255-7.4v-5.872c0-.766-.511-7.66-.511-7.66l-.511-7.659-.255-2.3s.766-6.255,1.149-7.4,1.149-5.873,1.149-5.873l1.532-7.021.51-4.213,2.3-2.681,5.49-4.34,4.34-4.723,3.574-3.192,2.3-5.745L1505,713l1.66-5.362-1.149-4.6.255-2.809-2.17-1.277-1.277.128-.893,2.553-.681,6.851-1.873,1.532-2.212,2.894-1.7-1.532-.17-2.553.341-1.022v-4.255l-.511-2.553-.17-8.681-.17-6.638-.511-3.064-1.192-.681-2.382-.34-1.362.681v2.553l-.681,3.744v2.043a6.586,6.586,0,0,1-.511,1.872l-1.191,1.022s-1.021,1.361-.851,1.872a8.275,8.275,0,0,0,1.361,1.7s.341,2.213.341,2.894.17,2.212.17,2.212l-.681.681-.681-1.532-1.191-3.063-.681-1.192-1.7-.17h-1.7l-2.213,1.021-.681,3.064-1.362-.34-2.212.17-1.7.851-.171,2.893.171,2.043-1.362-.17h-1.872L1468.064,709l1.362,1.532-1.532.511-2.383,1.872-1.022,4.6,1.873,4.766,1.872,5.617.17,5.787-6.978,19.064L1458.872,757l-3.4,11.064-.511,3.915-1.361.17-2.383-.17L1444.574,773l-2.893.851-3.915,2.553-2.383,3.234-1.362,4.256.681,4.936s-2.723,2.383-2.723,2.893-.511,4.766-.511,4.766l-1.7,2.043-1.021,4.6-1.192,5.957.341,7.489-1.362,6.3.17,5.447v3.234l1.192,3.234,2.042,6.468-2.383-.17-3.4-.34-1.7-2.043-2.553-3.745-1.022-2.893-2.212-3.234-1.873-5.107-.51-4.595-.511-4.6,2.042-4.085,1.7-4.085V797.17l.51-3.064,2.724-3.234-.171-6.638-.34-3.574,3.064-1.4,1.915-1.149.766-1.659,1.532-1.4,1.744-2.894-.34-6.468-1.021-1.532-1.022-1.7-2.127-1.873-3.873-1.744-11.617.255-5.021,2.17-2.553.511-.277,1.4.617,1.83,3.745.17,1.872,1.362-.51,3.915,2.723,3.064.17,3.574-4,7.319-4.51,7.149-2.639,7.234-.68,6.809-4.171,9.787-4.425-6.468-2.383-13.958-1.021-10.893-6.128-7.49-2.724-21.106-8.234-29.255-5.936-22.66,1.66-5.489,2.681-3.7.383-3.958,2.17-2.17,1.021-3.7.894-4.979.383-5.617.383-3.83.127-4.723-.127-1.149-.766-.255-1.022,1.915-1.787,3.574-.51,2.936-.256,1.277-1.659.766.255-1.532.766-3.447,1.277-1.787v-3.447l.127-4.851V657.6l-1.021-.894-.894.255-1.149,2.3-.893,3.575-.766,4.34-1.149,3.958-.894,1.532-.766-1.532V668.7l.383-4.085,1.022-3.83.51-3.7-.51-4.213-.766-1.149-1.022-.255-.766,1.787-1.021,3.575-1.276,2.681-.894,5.106-.383,5.362-.511,2.3-1.532-.894-.383-4.979.383-6.255,1.149-4.468-.255-2.809-1.149-1.021-1.532.894-1.659,4.6-.766,8.809-.256,7.149-5.106,6.128-.511,12.765,4.639,16.979,2.382,16.17,3.064,21.447.341,8s-1.85,1.972-2.292,2.029c.214,1.2.59,7.333.59,7.333l-.851,6.468h-10.213l-13.277.511-6.638,3.063-2.553,3.575-4.256,2.723-1.872-9.191-2.383-15.319-3.915-15.149-1.872-9.7-4.426-5.277-1.532-7.319-3.4-7.149-1.872-5.447L1289.681,701l-3.575-2.213-3.234-4.255-2.553-4.426-2.383-1.021-1.362.511,1.873,5.276,2.383,3.405-.681,3.914-6.468-10.212-2.213-.171-1.191,1.7,1.872,3.234,4.425,7.829,3.4,7.49.085,5.617-5.192-6.894-2.893-.51-2.894,1.617-.766,2.383L1283,730.191l2.043.362,3.446.745,2.383,4.766,3.064,10.553,3.064,33.7,2.383,18.553-1.7,1.532-1.532-.34-.851,1.872,1.7,7.49-.681,14.978.17,3.4-1.191.511-1.192-3.234-2.042-1.532-3.4.851-2.213,3.064L1282.7,829l-2.042-.681V819.3l1.446-4.681,2.043-1.277,1.787-10.978-3.319-1.532-1.106-7.745L1281,788.66l-2.723-4.937-2.809-4.34-5.106-2.043-16.341-.255-7.021,2.3-5.234,6.383-1.787,5.362,1.276,7.915-.51,5.361-2.553.511,1.531,8.425,2.554,4.6,2.3,1.277,2.809-.511v8.936l2.043,1.532-.256,3.319-1.021,2.3-1.787.511-4.085-2.809-4.6-3.574-5.107-.766-5.617,1.532-5.617,5.872L1202.7,819.468l16.17-24.681.341-3.234v-3.574l-2.724-4.766-2.723-3.234-1.362-9.022-1.021-5.106-4.085-.34-9.532-16-.17-1.192,2.042-1.7,2.894-2.043,3.574-.17.681-2.213-.34-2.042-2.383-1.532-4.6.851-3.4,1.192-1.532-2.043-1.7-3.915-.17-10.723v-5.107l-1.192-2.212h-1.362l-.851,3.574-.51,9.021-1.192-.17-1.191-7.277-.256-5.872-.766-2.553-1.021-.511-1.4.383-.766,3.83,1.149,3.064.681,8.936-4.6-7.83-4.426-5.617-6.638-4.6L1166.7,708.4c.107-1.125-1.048-3.45-2.17-3.319l-8.638.341-8,.34-.511,8.511,4.936,8,7.319,3.063,8.511,3.915,11.4,19.4.17,5.446-2.383,7.32-3.234,18.382v13.447l6.3,13.447-4.085-4.6-5.106-9.021,1.191-8-.17-12.936L1157.681,753l-6.809-2.894-13.021-.085-16,11.405-5.277,4-2.723,6.382-1.872,5.277-.851,7.064-.426,3.064-.936.085-.766-3.4v-9.447l1.915-2.639-.085-26.212-1.4-.681h-1.192l-1.191,1.191-.681,2.894-1.7-.34-2.383-2.724h-2.724l-10.893,10.383-.171,3.4,2.213,3.915,5.617,10.213.341,16.17-1.022,9.362-2.212,11.234-.681,14.979-3.234,3.064.17,19.4,3.915,8,3.064,4.766,5.446,2.213,6.639,4.255,1.361,4.085,1.532,6.468,3.234,5.617v2.383l-.68.511.34,6.3,4.085,3.4,9.192,13.617-.341,6.468-23.319,38.468,15.319,18.894,8.851.851-.34,7.489-1.873,10.213-1.872,9.532v8l1.532,7.489,3.745,17.192,2.383,5.787,69.446-1.021V1033.6l-.34-13.617.681-14.639V985.6l1.362-13.617,11.574-2.724,1.021,4.426.341,5.447-2.043,2.042-1.021,7.149-1.021,7.489-1.7,3.745.34,11.915-.681,5.447v5.787l1.7,6.468.681,7.49h163.745l2.042-2.724,1.022-14.3,1.361-8.51,9.873-2.043,10.212-2.383,3.064,1.362-.681,10.213v7.149l1.7,10.893,88.171.341,2.383-6.469s1.361-8.851,2.042-10.212a44.849,44.849,0,0,0,1.7-6.128l.341-8.851.681-2.383,3.063-2.043,4.766-2.383,3.745-6.468,5.447-5.446,2.383-.681.681,3.744a55.93,55.93,0,0,0-4.426,5.447c-1.021,1.7-4.766,9.873-4.766,9.873l-5.787,6.808-2.043,11.575-.34,10.553L1625,1034.617l1.021-8.851-.17-7.319-3.234-15.49-.511-8.68-1.532-9.362.511-5.787,4.6-5.788,1.872-6.468-1.361-10.723-2.213-13.958s-1.873-12.085-1.873-12.6-.34-7.319-.34-8,1.021-8.681,1.021-8.681L1625,901.851s1.872-8.681,2.043-9.362,0-12.936,0-12.936l1.191-12.255,4.426-7.149,5.276-8.341,5.277-9.531,4.255-9.532,2.894-8.681,3.4-16.17,1.191-6.468,1.7-6.469s1.021-4.766,1.021-5.446V784.4Zm-463.659,2.723v4.085l.17,7.149-1.362,1.532-1.191-7.149-.341-11.4Zm16,96-2.894,9.192-1.362,6.979-1.531,15.829-6.979-32.17L1191.3,860.66l-5.447-10.383-3.915-7.49,3.4-4.085,3.575,5.106,10.213,8.852,11.064,11.744Zm123.83-32-6.256.128-5.872,1.149-4.6,1.787,3.192-7.4,1.276-5.745,12.511,1.022Zm81.276,90.724-2.893,12.936L1408.83,957l-2.894,9.872-2.723-6.127-2.043-9.362-2.723-9.532-4.6-12.425-.511-12.766-2.212-4.426-1.7-6.468.34-5.106,1.872-8.681.511,2.042.681,7.149,4.255-2.042,4.766-5.617,2.043-4.937.17-9.021-.341-8.51,1.873-8.171,2.723,3.915,3.234,12.256,2.043,13.446,1.191,13.617.17,15.49Zm87.362-8.128-1.532,18.128-1.66,11.361-1.532,10.979-.766,10.724-.765-4.6-.766-8.17-2.3-4.6-1.66-4.341L1488.4,950.7v-8.936l.639-8.681-.639-3.191-2.681-1.532-.127-4.213.127-8.426,1.532-3.957,1.532-4.085.511-19.021-.128-9.575,2.553-3.319,5.362-.128.511,6,1.659,4.085.128,6.511,2.3,12.383Z"/></g></svg>