<svg id="Layer_2" data-name="Layer 2" xmlns="http://www.w3.org/2000/svg" viewBox="0 0 1920.426 1080.128"><defs><style>.cls-1{stroke:#000;stroke-miterlimit:10;}</style></defs><title>sport_mask-01</title><path d="M1920.234-.064H-.191V1080.064H1920.234ZM1652.574,924.66c-45,32.035-196.5,95.7-262.67,107.045l-934.776-.833C323.383,1011.468,309.622,933.908,244,902c-25.036-12.173-35.755-6.264-55-16C73.991,827.816,82.243,427.258,243,344c52.969-27.434,89.4-3.28,152-45,80.271-53.5,62.568-121.363,117-154,89.049-53.394,292-18,507,0,358.214,29.99,667.761-168.256,573,89-67.243,182.55,59,331,27,383C1585.5,671.433,1796.632,822.1,1652.574,924.66Z" transform="translate(0.191 0.064)"/><g id="football"><path d="M1626.454,761.346c0,.089.059,2.135.058,2.433l2.843,1.572,2.223,2.692,1.137.518,1.739,1.839,1.02,1.873,1.94,3.478,1.789,2.457,2.541,3.361,6.136,7.708,5.418,6.5.016,1.154-.183.318,1.822,2.942,4.163,8.009,1.94,6.321,3.344,6.7,1.789,4.214,2.575,5.952,1.655,6.722.953.9,1.2,3.662,2.357,3.411.753,19.111v6.07l-.452,1.605-.7,1.1-1.4,1.054.15,6.571.753,1,.1,1.7.5.6.25,3.562.953,1.354.3,1.254,1.605,1.856,3.662,3.009.552,1.054,3.16,2.959,4.916,3.762,1.856,1.254,3.21,2.408.9,1.354,2.458.9,1.4,2.157.2,1.4-1.4.6-3.36-.25-8.076-.5-4.414-.451-4.314-.6-2.759-.6-5.367-.7-3.662-.4-.5.151v.852l-2.408-.05-.7-1.4-1.154-.753-.853.853-1.7.351-.151-2.658-.551-2.659-1.1-1.2-.3-3.26.9-3.712-.5-2.107.351-.852-.15-1.154-.15-3.561.351-.5-.4-4.213-.5-1.154.351-1.354-4.214-14.848-1.5-.5L1649.7,863.5l-2.057-4.515-1.755-5.818-.9-4.916-2.157-11.035-23.425-21.92L1616,816.548l-1.7-.1-2.308-1.4-1.805-.3-2.107-.753-3.261-.9-6.37-3.361-8.076-7.123-7.173-7.123-5.517-5.718-2.759-3.26-1.2-.3-2.458-1.756-.351,1.856-8.628,10.684-3.461,3.361-4.614,3.009-3.06.9-6.922,1.3-.1,1.5,1.2,2.809,5.317,6.571,9.581,13.694,3.561,8.628,1,6.821,12.088,24.429,3.11,4.012,2.659,4.715,1.5,1.1.251,1.806,2.709,2.508,2.257,2.307,2.809,2.207,2.207,3.11.853,2.257,1.856,2.007-.5,1.956-1.1,1.1h-.6l-1.1.9-.752,1.054-1.4.251-.752-.853-1.2-.351-.6.251.1.852.051,1.2.4.853.05,1.053-1.053.853-1.054.6-.652-.05-.6.8-.552.452-.8-.6-1-.652-.853.3-.8.7-.9.9-1.1.752-1.053.151-.4.5-.15.6.5.7.151.2-.9,1.254-.953.5-.5-.3-.752-.652-.4.05-.953.5-1.555.4-.8-.552h-.752l-1.956-.953-1.2-1.254-1.355-2.508.2-3.06.6-1.856,1.154-1.555.8-1.5-.251-1.053-.551.4-.853.05-.9-.3.451-1.605.4-3.561.7-2.257-.251-2.659-.953-2.257-1.806-2.257-1.153-1.706-.8-2.307-.251-1.2.3-1.1-3.912-4.766-6.421-6.621-2.207-.6-9.28-11.888-1.5-.25-.7-1.907-7.875-9.981-2.909-6.521-3.01-6.772-.05-1.655-3.411-9.531-2.257-5.267-3.411-7.423-2.909-8.427-.3-5.417.752-6.12-.6-5.668.753-4.063,3.21-8.628,1.806-5.066.4-6.37,1.4-1.856,2.959-2.909-.451-2.559-.552-.9.251-1.655,1.555-1.3,1.705-1.254h1l.151-2.307,1.2-1.906.05-4.114,1.454-12.339,2.007-6.872,1.3-11.888-.05-21.418-.7-16.453-3.411.15-9.531,7.575-4.113-5.217-4.715-2.107-8.076,1-9.229.352-10.534,1.906s-10.784.9-10.935.9-16.051-1-16.051-1l-15.8-2.859-11.587-2.859-4.263-.351-5.418.451-4.915-.25-3.963-1-1.455-.7-.4.2-1.605.953-2.809.15-2.207-.752-1.053-1.1-.151-1.354.4-.953-1.555-1.053-1.1-1.2-.351-1.706.4-1.2-.953-1.454v-1.3l.752-1.2.953-1.1,1.054-.3-1.1-1.3.1-1.2.451-2.207,1.956-1.1,1.154-.351,1.455.15,1.153.251,1.2-.8,1.956-.351,1.1-.05-1.354-2.006-.552-2.91v-1.705l.9-1.3.852-.251,1.054.8.552,1.305,1.153,2.006,5.969,4.314,3.311,1.705,3.411,3.562,2.658,1.354,2.124.3h21.218l11.787-1.572L1476,645l7.072.786,4.715.786h5.5l7.859-.786.786-.786,4.715-.785,2.357-.786,1.572-.786h3.143l2.358-2.358.786-.785.786-.786h1.571l.786-.786.786-.786,1.572-.786,2.357-1.572,2.358-1.571,3.929-1.572,1.572-.786,2.357-.786h1.572l2.357-.785.786-.786h.786l2.358-.786,1.571-.786.786-.786h5.5l4.715.786h2.358l1.571-1.572h5.5l4.715-.786,1.572-.785-.786-4.715-.786-3.144-.443-2.976.226-3.612-.326-2.207.1-2.382.552-1.5.176-5.459.718-6.872-1.019-2.14-.552-3.06,1.856-4.414,3.661-4.364,7.274-2.809,7.423-1.354,5.568-.051,5.568.954,4.966,1.755,3.31,3.311,1.455,2.458.853,2.909.2,3.06.8,4.715-.075,2.081-3.085,11.663.92-.017.518.485.535,1.187.167,1.739-.134,1.538-.836,2.441-1.337,2.274-1.2,1.706-.97.7-1.739.334-.334,1.355-1.4,5.718-.852,5.668,3.11,2.458,1.3,1.3,1.805.652,1.656.9,1.605.6,2.759,1.655,7.875,5.334,6.253,4.782,4.18,3.678,1.2,1.438.7,1.505.034,2.307.731,2.676.075,3.3.778,2.219.665,2.069.313,1.568.347,1.162.033,8.46.2,1.12-.318.519-.267.15-.134.585.3.5,1.12.3,1.656.435.9.6.384.7.351,1.2.686,1.3,1.2,1.689.484.9.1,1.772-.335,1.187.552.568.284,1,.5.953.719,1.12v1.471l.4,1.07.234,1.02-.133.452.066,1.371.368,2.441.234,1.839.184,1.07,1.2,1.823.151.4.083,1.488.619,6.354.284,4.146-.2.719-.151,2.308-.351.568-.769,1.639-1.221,2.14-1.822,4.715-.9,1.7-.435,2.09-.919,2.091-1.154,1.889-1.3,1.672-1.087,1.588-.117,5.819.317,2.809.786,2.29.067,2.174.686,1.137-.034,2.274-.869.786-.953.017-1.02-.368-1.3-.92-.418-.284-.318.552-.368.117-2.809-.034-1.672-1.622-.368-.317.117-2.776-.7-1.689-1.237,1.99-.819,4.264-1.689.033-1.329-.426-1.1-1.1.075-3.21.326-3.611-.125-.3-2.032,2.834-1.028,2.182-1.354.727-1.48-.8-.527-2.282.5-2.433.477-1.831-.427-.752-1.078,1.229-1.1,1.129-1.279-.151-1.229-.451-.4-1.2.4-1.831,1.355-.778.978-.476,1.078-1.555,1.2-1.48,1.429-3.085,2.659-1.73,6.2-10.041.669-6.019.267-7.089-1.738-7.357-4.013-8.427-5.217-10.433-2.14-4.147-.535,11.1-1.2,14.982v11.235l1.338,9.5,1.471,10.434Z" transform="translate(0.191 0.064)"/><path d="M1544.983,902.884c0,5.376-1.749,9.462-4.564,13.594A27.651,27.651,0,0,1,1533.2,924a23.682,23.682,0,0,1-13.544,4.063,36.057,36.057,0,0,1-4.915.1c-5.03-.827-9.239-3.581-12.841-6.872a25.111,25.111,0,0,1-8.277-18.81,24.691,24.691,0,0,1,7.926-18.459c4.609-4.315,10.493-7.324,17.3-7.324,8.362,0,15.855,3.11,20.566,9.28a25.914,25.914,0,0,1,5.517,15.086C1544.937,901.249,1544.983,902.7,1544.983,902.884Z" transform="translate(0.191 0.064)"/><path d="M1500.978,876.7" transform="translate(0.191 0.064)"/></g><g id="basketball"><path class="cls-1" d="M229.39,922.787l-8.844-6.281.406-4.844,1.219-4.781-1.594-3.188-1.875-3.75.656-5.156.844-10.875.875-7.375-.125-15.125,1.375-5.625.875-5.875.25-8.75.781-22.312,2.438-13.313,3.094-8.812L233.7,785.85l-.562-9-2.157-3.094,1.407-11.063,2.812-7.968.375-17.907-1.25-19.531-1.25-8.625,1.75-11.125,2.375-12,.25-9.625,1.125-6.75,2.875-6.125,3.25-4.625,4.25-1,.875-6.875-1.875-1.375-.625-8.25,3.25-10.25,2.625-7.875.875-2.625.25-14.875-.75-6.75-2.625-8.875-2-4.375.125-9.25,2-7.5-.125-4.375-3.625-8.75.125-13.25-2.75-7.875.125-7.5.625-1.75-.5-19.375-1.75-8.625-.25-14.375,2.125-8.75,1.875-15,.25-19.125-2.25-3.75-2.25-10.25-2.625-7.25-.125-5.375.188-1.562,2.125-.063.75,1.438,1.187,5.187,3.188,5.125-1.25-15.437,1.25-2.313,2.437.063,1.313.875.187,8.375.813,6.687,2.312-.25,1.438-7.687.125-8.25,1-1.25,2.062.062,1.5,1.375L260.39,416.1l-.75,6h1.343l.329-6.61.7-.937,1.172-.094.234-8.25,1.125-1.266,1.875.047.891.844.609,2.813-.094,6.468-1.031,5.11-.047,6.047,1.078,1.078.281,3.234-1.078,1.5L261.5,448.865l-.234,29.922,1.687,26.5,3.625,15.125.625,14.875,11.375,17.125h1l.125-5.5-1.875-1.875-.75-7.125,1-6.625,2.75-7.375,3.125-6.25,6.375-5.875,5.25-2.5,6.5.375,4.5,2.25,5.375,4.75,4.375,7.25-1.5-9.875-3.375-11.75-3.375-18.125-3.75-13.625-5.625-13.5.25-8.625,2-4.125.25-3.125,2.125-2.5,1-.875,1.5.125,1.125,1.125.625,1.5v3.375l1.25-.25.125-3.25.625-1.25.5-6.125,3.625-7.375,4-2.875,1.375.125.5,1.75-1.25,6.75-.5,7.875.125,8.625-4.25,11v4.25l2.5,2.625v4.875l15.25,34,3.25,18.25,1.25,1.625,2.75,13.875v14.5l-.875,1.5.125,13.5-6.625,12L328.7,595.287l-4.625,16.625-3.875,14.25-5,30.5-1.125,3.5-.375,9.625,1.375,2.875,2.125,6.375,1.5,5.75.625,11.5-1.125,5.125-2.25,55.125-.75,6.375-3.75,8.375-4.625,13.875-4.125.75-.5,5.625-1.375,5.75-.625,4.25-.625,24.75L292.2,850.412l-2.125,6.375-.125,3.375.875,4.75.75,2.625-4.25,12.25-.875,3.125-1.625,3.625-.5,9.75.125,4.375,2.125,11.625,2,3.625.875,5.375.5,5.375-1.25,2.75-1.375,1.375-4.75-.375-3-1.625-15.5-12,.25-5.25-2.75-3-9.75-7-1.625-2.375.25-4.375,14.375-13.25,1.125-6.125,1.25-2.25.125-8.125,2.875-2.375-.25-4.875,1.375-1.625,1.125-11.25.125-19.125.875-6.625,3.125-8.25,1.5-10.625-1.25-8.375-.375-11.875-13-4.125-4.75,4.75-.375,7.75-1.25,3.125L251.2,801.662l-3,12.5-.75,10.875-1.5,6.125-3.125,12-1.125,6-.125,4.75,1.625,3.25.75,3.875v3.375l-1.625,2.25-.125,4-.125,4.375.625,8.375.375,10.25.5,6.125,1.375,4.875,1.5,3.25,1.25,3v4.25l-.125,5.25-.875,2.75-5.75.375s-5.875-.125-6.625,0A34.818,34.818,0,0,1,229.39,922.787Z" transform="translate(0.191 0.064)"/><path d="M278.767,381.963c0,5.887-1.916,10.362-5,14.887a30.284,30.284,0,0,1-7.91,8.24,25.937,25.937,0,0,1-14.833,4.45,39.4,39.4,0,0,1-5.383.109c-5.508-.9-10.118-3.921-14.063-7.525a27.5,27.5,0,0,1-9.064-20.6,27.043,27.043,0,0,1,8.679-20.215c5.048-4.726,11.492-8.021,18.952-8.021,9.159,0,17.364,3.405,22.523,10.163a28.372,28.372,0,0,1,6.043,16.521C278.716,380.172,278.767,381.761,278.767,381.963Z" transform="translate(0.191 0.064)"/></g><g id="volleyball"><path d="M434.479,179.524l1.8-.584,3.263-.921,4.662-2.342,4.079-2.342,4.395-2.484,4.823-.955,5.879-.879,4.793-.183,8.517,1.4,8.6,1.513,5.552,1.108,6.655.319,5.218-.405,5.755-.121,6.276.256,9.415,1.259,6.276.255,2.977-1.551,4.016-2.546,5.025-2.186,5.721-1.682,5.217-.988,5.139-.514,6.024.6,4.732.779,5.619,3.064,3.568,2.532,5.2,5.035,4.1,1.648,8.541,5.391s6.674,2.557,6.927,2.793,7.38.633,7.38.633l4.743-1.649L626.456,181l8.632-4.021,6.747-.833-2.777-1.235-1.434-2.31-4.924-2.366-1.733-4.433,1.909-2.148,2.355-.13,2.1-1.728,1.886-2.8,3.273-3.349,3.462-3.707,3.316-2.823,2.163-1.329-.759-.9L651.6,146l1.934.059,2.354-.131,3.843-2.088,7.213,1.058,8.494.362,1.379-4.439,2.262-4.293,4.1-.491,3.758-2.362,6.556-2.031,5.127-1.229,4.988,2.765,5.625,5.981,3.6,4.87,1.154,9.521.362,2.522-.206,2.04-1.028,1.516-1.214,2.651.572,2.038.761,2.458-.895,4.648-2.179,3.788-3.187,4.4-.727,4.417-1.743,1.138-6.077-.871-2.224,2.485,1.791,1.721,6.53,6.777L707.8,196.6s16.218,4.615,17,4.614,14.678,2.157,14.678,2.157l8.585,3.747,9.024,2.652L777,212.4l2.059-.7,9.421,1.811L792.1,216.7l1.683.8,2.776.457-.144,1.661.759.9-.221,5.277-.627,2.229-1.471.277-.963,1.915-3.974-.266-4.682,3.247-2.356-.648-3.579-2.663s-2.883-1.382-3.261-1.444-2.508-2.875-2.508-2.875l-7.294.224L755.7,223.667l-6.117.159-19.83-2.358-7.468-2.655L706.7,215.08l-1.125,5.258,1.331,3.718.789,5.444,5.7,21.285,5.717,10.143,1.209,5.253,5.015,16.767.491,4.1,2.922,10.59,1.651,5.715,1.817,4.705,3.938,3.63L739,314.1l20.127,14.719,1.054,1.47-1.2.969-1.955.067-1.956-.711-1.915-.964-.924.885-2.44-.92-3.937-2.852-3.074-2.579-.08,2.06-1.892.466-2.692-.962-4.213-3.933-3.66-.992-3.285-2.874-4.406-6.3-2.9-9.16-5.7-11.048L700.177,264.16l-.563-8.387-2.387-5.966-4.61-13.719-2.029-5.777-4.871-7.412-2.258-4.389-5.307,6.254-4.949,6.442-5.188,2.386-6.243.138-6.878-1.521-10.741.693-16.1,1.756-14.6-3.441-16.065-1.609-11.9.633-1.644,3.294-15.74,19.245L549.35,271.464,538.4,282.491l-2.8,3.232-.755,1.431a23.275,23.275,0,0,1-2.5,1.792c-.189-.031-3.531.585-3.531.585l-6.192-.566-3.954-.781-4.418-1.505-3.368-2.369-1.983-3.7-.816-3.31-1.328-1.774L505.1,272.6l-5.17-4.415-4.856-5.531-2.6-3.085L488.2,256.4l-2.093-.669-1.114.465-1.42-.817-3.717-3.01-3.19-2.664-2.081.046-4.7,2.206-3.845.922-.9-2.027-1.654-1.762-1.653-1.374-2.048.635-3.655,1.731-1.426,1.579-.3,3L455.633,257l1.319,2.615.677,2.185L457.2,264l-1.658,1.411-5.06.236-3.407-.561-2.984-1.949-2.291-2.613-2.041-3.544-.716-3.325.9-4.906.388-2.949,1.585-3.724,2.629-2.386,2.66-2.575,1.4-2.589-.275-3.641.321-4.905,3.8-7.733,5.509-5.119,2.755-1.977,3.5.577,1.345,2.457,1.788,3.308,5.463,4.01,1.757,3.5,3.568,2.531,7.751,4.873,3.712,3.43,13.8,8.3,8.808,4.949,7.326,5.095,3.634,3.9,2.588,1.4,2.926-3.6,3.942-8,4.159-9.91,4.265-12.322,6.85-12.675,1.713-2.731-2.477-.894-2.838.116-6.116.548-4.666.592-7.808-1.577L518.8,207.3l-12.18-3.95-6.988-1.831-10.74-1.477-7,.6-3.486-.671-2.385-2.045-2.794-1.919-3.614-1.664-5.316-1.361-5.142-.653-5.613-.146-5.045.53-4.428.923-3.089,1.046-1.732,1.076-2.555-.421-.5,1.278-1.256,2.9-1.227,1.547-1.763,1.265-1.812.966" transform="translate(0.191 0.064)"/><path d="M825.359,194.087c-.835,5.071-3.12,8.654-6.417,12.114a26.432,26.432,0,0,1-7.983,5.975,22.635,22.635,0,0,1-13.406,1.729,34.384,34.384,0,0,1-4.653-.669c-4.616-1.561-8.159-4.813-11.046-8.477a24.008,24.008,0,0,1-4.885-19.03,23.6,23.6,0,0,1,10.344-16.181c5.018-3.355,11.035-5.278,17.461-4.22,7.889,1.3,14.474,5.4,17.959,11.948a24.77,24.77,0,0,1,2.861,15.088C825.57,192.537,825.388,193.913,825.359,194.087Z" transform="translate(0.191 0.064)"/></g></svg>